<mxfile host="app.diagrams.net" modified="2022-11-03T09:45:27.896Z" agent="5.0 (Windows NT 10.0; Win64; x64) AppleWebKit/537.36 (KHTML, like Gecko) Chrome/107.0.0.0 Safari/537.36" etag="PGpaacHHXb-7hcudiHe4" version="20.5.1" type="github">
  <diagram id="prtHgNgQTEPvFCAcTncT" name="Page-1">
    <mxGraphModel dx="642" dy="717" grid="1" gridSize="10" guides="1" tooltips="1" connect="1" arrows="1" fold="1" page="1" pageScale="1" pageWidth="827" pageHeight="1169" background="#ffffff" math="0" shadow="0">
      <root>
        <mxCell id="0" />
        <mxCell id="1" parent="0" />
        <mxCell id="G-Tz_6IMmRrEzIlT-Tn9-2" value="Vertical Container" style="swimlane;fillColor=none;startSize=20;strokeColor=default;" vertex="1" parent="1">
          <mxGeometry x="130" y="60" width="480" height="600" as="geometry" />
        </mxCell>
        <mxCell id="G-Tz_6IMmRrEzIlT-Tn9-3" value="" style="swimlane;startSize=0;fillColor=none;" vertex="1" parent="G-Tz_6IMmRrEzIlT-Tn9-2">
          <mxGeometry x="160" y="20" width="160" height="580" as="geometry" />
        </mxCell>
        <mxCell id="G-Tz_6IMmRrEzIlT-Tn9-12" value="request to open form" style="ellipse;whiteSpace=wrap;html=1;strokeColor=default;fillColor=none;" vertex="1" parent="G-Tz_6IMmRrEzIlT-Tn9-3">
          <mxGeometry x="6.25" y="100" width="145" height="40" as="geometry" />
        </mxCell>
        <mxCell id="G-Tz_6IMmRrEzIlT-Tn9-18" value="open new window&lt;br&gt;&quot;register a new plant&quot;" style="ellipse;whiteSpace=wrap;html=1;strokeColor=default;fillColor=none;" vertex="1" parent="G-Tz_6IMmRrEzIlT-Tn9-3">
          <mxGeometry x="-1.25" y="210" width="145" height="40" as="geometry" />
        </mxCell>
        <mxCell id="G-Tz_6IMmRrEzIlT-Tn9-26" value="request to add new entry to database&lt;br&gt;request to add data to entry" style="ellipse;whiteSpace=wrap;html=1;strokeColor=default;fillColor=none;" vertex="1" parent="G-Tz_6IMmRrEzIlT-Tn9-3">
          <mxGeometry x="6.25" y="290" width="145" height="120" as="geometry" />
        </mxCell>
        <mxCell id="G-Tz_6IMmRrEzIlT-Tn9-32" value="Error" style="ellipse;whiteSpace=wrap;html=1;strokeColor=default;fillColor=none;" vertex="1" parent="G-Tz_6IMmRrEzIlT-Tn9-3">
          <mxGeometry x="6.25" y="430" width="145" height="40" as="geometry" />
        </mxCell>
        <mxCell id="G-Tz_6IMmRrEzIlT-Tn9-35" value="request to register plant" style="ellipse;whiteSpace=wrap;html=1;strokeColor=default;fillColor=none;" vertex="1" parent="G-Tz_6IMmRrEzIlT-Tn9-3">
          <mxGeometry x="6.25" y="490" width="145" height="40" as="geometry" />
        </mxCell>
        <mxCell id="G-Tz_6IMmRrEzIlT-Tn9-5" value="" style="rounded=0;whiteSpace=wrap;html=1;fillColor=none;" vertex="1" parent="G-Tz_6IMmRrEzIlT-Tn9-2">
          <mxGeometry y="20" width="480" height="30" as="geometry" />
        </mxCell>
        <mxCell id="G-Tz_6IMmRrEzIlT-Tn9-6" value="User Interaction" style="text;html=1;strokeColor=none;fillColor=none;align=center;verticalAlign=middle;whiteSpace=wrap;rounded=0;" vertex="1" parent="G-Tz_6IMmRrEzIlT-Tn9-2">
          <mxGeometry x="20" y="20" width="120" height="30" as="geometry" />
        </mxCell>
        <mxCell id="G-Tz_6IMmRrEzIlT-Tn9-7" value="Frontend" style="text;html=1;strokeColor=none;fillColor=none;align=center;verticalAlign=middle;whiteSpace=wrap;rounded=0;" vertex="1" parent="G-Tz_6IMmRrEzIlT-Tn9-2">
          <mxGeometry x="210" y="20" width="60" height="30" as="geometry" />
        </mxCell>
        <mxCell id="G-Tz_6IMmRrEzIlT-Tn9-8" value="Backend" style="text;html=1;strokeColor=none;fillColor=none;align=center;verticalAlign=middle;whiteSpace=wrap;rounded=0;" vertex="1" parent="G-Tz_6IMmRrEzIlT-Tn9-2">
          <mxGeometry x="370" y="20" width="60" height="30" as="geometry" />
        </mxCell>
        <mxCell id="G-Tz_6IMmRrEzIlT-Tn9-9" value="" style="ellipse;whiteSpace=wrap;html=1;aspect=fixed;fillColor=#000000;" vertex="1" parent="G-Tz_6IMmRrEzIlT-Tn9-2">
          <mxGeometry x="60" y="60" width="40" height="40" as="geometry" />
        </mxCell>
        <mxCell id="G-Tz_6IMmRrEzIlT-Tn9-13" value="push button &quot;register plants&quot;" style="ellipse;whiteSpace=wrap;html=1;strokeColor=default;fillColor=none;" vertex="1" parent="G-Tz_6IMmRrEzIlT-Tn9-2">
          <mxGeometry x="6.25" y="120" width="145" height="40" as="geometry" />
        </mxCell>
        <mxCell id="G-Tz_6IMmRrEzIlT-Tn9-14" value="" style="endArrow=classic;html=1;rounded=0;exitX=1;exitY=0.5;exitDx=0;exitDy=0;entryX=0;entryY=0.5;entryDx=0;entryDy=0;" edge="1" parent="G-Tz_6IMmRrEzIlT-Tn9-2" source="G-Tz_6IMmRrEzIlT-Tn9-13" target="G-Tz_6IMmRrEzIlT-Tn9-12">
          <mxGeometry width="50" height="50" relative="1" as="geometry">
            <mxPoint x="238.75" y="440" as="sourcePoint" />
            <mxPoint x="288.75" y="390" as="targetPoint" />
          </mxGeometry>
        </mxCell>
        <mxCell id="G-Tz_6IMmRrEzIlT-Tn9-25" value="" style="edgeStyle=orthogonalEdgeStyle;rounded=0;orthogonalLoop=1;jettySize=auto;html=1;entryX=0.459;entryY=0.025;entryDx=0;entryDy=0;entryPerimeter=0;" edge="1" parent="G-Tz_6IMmRrEzIlT-Tn9-2" source="G-Tz_6IMmRrEzIlT-Tn9-15" target="G-Tz_6IMmRrEzIlT-Tn9-24">
          <mxGeometry relative="1" as="geometry" />
        </mxCell>
        <mxCell id="G-Tz_6IMmRrEzIlT-Tn9-15" value="fill out information about plant" style="ellipse;whiteSpace=wrap;html=1;strokeColor=default;fillColor=none;" vertex="1" parent="G-Tz_6IMmRrEzIlT-Tn9-2">
          <mxGeometry x="6.25" y="225" width="132.5" height="50" as="geometry" />
        </mxCell>
        <mxCell id="G-Tz_6IMmRrEzIlT-Tn9-10" value="" style="endArrow=classic;html=1;rounded=0;exitX=0.5;exitY=1;exitDx=0;exitDy=0;entryX=0.5;entryY=0;entryDx=0;entryDy=0;" edge="1" parent="G-Tz_6IMmRrEzIlT-Tn9-2" source="G-Tz_6IMmRrEzIlT-Tn9-9" target="G-Tz_6IMmRrEzIlT-Tn9-13">
          <mxGeometry width="50" height="50" relative="1" as="geometry">
            <mxPoint x="250" y="480" as="sourcePoint" />
            <mxPoint x="90" y="150" as="targetPoint" />
          </mxGeometry>
        </mxCell>
        <mxCell id="G-Tz_6IMmRrEzIlT-Tn9-20" value="load form" style="ellipse;whiteSpace=wrap;html=1;strokeColor=default;fillColor=none;" vertex="1" parent="G-Tz_6IMmRrEzIlT-Tn9-2">
          <mxGeometry x="326.25" y="120" width="145" height="40" as="geometry" />
        </mxCell>
        <mxCell id="G-Tz_6IMmRrEzIlT-Tn9-21" value="" style="endArrow=classic;html=1;rounded=0;exitX=1;exitY=0.5;exitDx=0;exitDy=0;entryX=0;entryY=0.5;entryDx=0;entryDy=0;" edge="1" parent="G-Tz_6IMmRrEzIlT-Tn9-2" source="G-Tz_6IMmRrEzIlT-Tn9-12" target="G-Tz_6IMmRrEzIlT-Tn9-20">
          <mxGeometry width="50" height="50" relative="1" as="geometry">
            <mxPoint x="248.75" y="410" as="sourcePoint" />
            <mxPoint x="298.75" y="360" as="targetPoint" />
          </mxGeometry>
        </mxCell>
        <mxCell id="G-Tz_6IMmRrEzIlT-Tn9-22" value="" style="endArrow=classic;html=1;rounded=0;exitX=0.5;exitY=1;exitDx=0;exitDy=0;entryX=1;entryY=0.5;entryDx=0;entryDy=0;" edge="1" parent="G-Tz_6IMmRrEzIlT-Tn9-2" source="G-Tz_6IMmRrEzIlT-Tn9-20" target="G-Tz_6IMmRrEzIlT-Tn9-18">
          <mxGeometry width="50" height="50" relative="1" as="geometry">
            <mxPoint x="268.75" y="410" as="sourcePoint" />
            <mxPoint x="398.75" y="240" as="targetPoint" />
            <Array as="points">
              <mxPoint x="398.75" y="250" />
            </Array>
          </mxGeometry>
        </mxCell>
        <mxCell id="G-Tz_6IMmRrEzIlT-Tn9-23" value="" style="endArrow=classic;html=1;rounded=0;exitX=0;exitY=0.484;exitDx=0;exitDy=0;exitPerimeter=0;entryX=1;entryY=0.5;entryDx=0;entryDy=0;" edge="1" parent="G-Tz_6IMmRrEzIlT-Tn9-2" target="G-Tz_6IMmRrEzIlT-Tn9-15">
          <mxGeometry width="50" height="50" relative="1" as="geometry">
            <mxPoint x="158.75" y="250.72000000000003" as="sourcePoint" />
            <mxPoint x="318.75" y="360" as="targetPoint" />
          </mxGeometry>
        </mxCell>
        <mxCell id="G-Tz_6IMmRrEzIlT-Tn9-24" value="press &quot;save entry&quot;" style="ellipse;whiteSpace=wrap;html=1;strokeColor=default;fillColor=none;" vertex="1" parent="G-Tz_6IMmRrEzIlT-Tn9-2">
          <mxGeometry x="6.25" y="340" width="145" height="40" as="geometry" />
        </mxCell>
        <mxCell id="G-Tz_6IMmRrEzIlT-Tn9-29" value="save data" style="rhombus;whiteSpace=wrap;html=1;strokeColor=default;fillColor=none;" vertex="1" parent="G-Tz_6IMmRrEzIlT-Tn9-2">
          <mxGeometry x="358.75" y="320" width="80" height="80" as="geometry" />
        </mxCell>
        <mxCell id="G-Tz_6IMmRrEzIlT-Tn9-30" value="" style="endArrow=classic;html=1;rounded=0;exitX=1.003;exitY=0.417;exitDx=0;exitDy=0;entryX=0;entryY=0.5;entryDx=0;entryDy=0;exitPerimeter=0;" edge="1" parent="G-Tz_6IMmRrEzIlT-Tn9-2" source="G-Tz_6IMmRrEzIlT-Tn9-26" target="G-Tz_6IMmRrEzIlT-Tn9-29">
          <mxGeometry width="50" height="50" relative="1" as="geometry">
            <mxPoint x="268.75" y="390" as="sourcePoint" />
            <mxPoint x="318.75" y="340" as="targetPoint" />
          </mxGeometry>
        </mxCell>
        <mxCell id="G-Tz_6IMmRrEzIlT-Tn9-31" value="" style="endArrow=classic;html=1;rounded=0;entryX=0.99;entryY=0.35;entryDx=0;entryDy=0;entryPerimeter=0;startArrow=none;" edge="1" parent="G-Tz_6IMmRrEzIlT-Tn9-2" source="G-Tz_6IMmRrEzIlT-Tn9-46" target="G-Tz_6IMmRrEzIlT-Tn9-32">
          <mxGeometry width="50" height="50" relative="1" as="geometry">
            <mxPoint x="358.75" y="440" as="sourcePoint" />
            <mxPoint x="388.75" y="740" as="targetPoint" />
          </mxGeometry>
        </mxCell>
        <mxCell id="G-Tz_6IMmRrEzIlT-Tn9-33" value="Message &quot;Please try again&quot;" style="ellipse;whiteSpace=wrap;html=1;strokeColor=default;fillColor=none;" vertex="1" parent="G-Tz_6IMmRrEzIlT-Tn9-2">
          <mxGeometry y="450" width="145" height="40" as="geometry" />
        </mxCell>
        <mxCell id="G-Tz_6IMmRrEzIlT-Tn9-34" value="" style="endArrow=classic;html=1;rounded=0;exitX=0;exitY=0.5;exitDx=0;exitDy=0;entryX=1;entryY=0.5;entryDx=0;entryDy=0;" edge="1" parent="G-Tz_6IMmRrEzIlT-Tn9-2" source="G-Tz_6IMmRrEzIlT-Tn9-32" target="G-Tz_6IMmRrEzIlT-Tn9-33">
          <mxGeometry width="50" height="50" relative="1" as="geometry">
            <mxPoint x="268.75" y="380" as="sourcePoint" />
            <mxPoint x="318.75" y="330" as="targetPoint" />
          </mxGeometry>
        </mxCell>
        <mxCell id="G-Tz_6IMmRrEzIlT-Tn9-36" value="" style="endArrow=classic;html=1;rounded=0;entryX=1;entryY=0.5;entryDx=0;entryDy=0;startArrow=none;" edge="1" parent="G-Tz_6IMmRrEzIlT-Tn9-2" source="G-Tz_6IMmRrEzIlT-Tn9-44" target="G-Tz_6IMmRrEzIlT-Tn9-35">
          <mxGeometry width="50" height="50" relative="1" as="geometry">
            <mxPoint x="268.75" y="380" as="sourcePoint" />
            <mxPoint x="318.75" y="330" as="targetPoint" />
            <Array as="points">
              <mxPoint x="428.75" y="530" />
            </Array>
          </mxGeometry>
        </mxCell>
        <mxCell id="G-Tz_6IMmRrEzIlT-Tn9-37" value="Message &quot;registration successful&quot;" style="ellipse;whiteSpace=wrap;html=1;strokeColor=default;fillColor=none;" vertex="1" parent="G-Tz_6IMmRrEzIlT-Tn9-2">
          <mxGeometry x="6.25" y="510" width="145" height="40" as="geometry" />
        </mxCell>
        <mxCell id="G-Tz_6IMmRrEzIlT-Tn9-38" value="" style="endArrow=classic;html=1;rounded=0;exitX=0;exitY=0.5;exitDx=0;exitDy=0;entryX=1;entryY=0.5;entryDx=0;entryDy=0;" edge="1" parent="G-Tz_6IMmRrEzIlT-Tn9-2" source="G-Tz_6IMmRrEzIlT-Tn9-35" target="G-Tz_6IMmRrEzIlT-Tn9-37">
          <mxGeometry width="50" height="50" relative="1" as="geometry">
            <mxPoint x="270" y="420" as="sourcePoint" />
            <mxPoint x="320" y="370" as="targetPoint" />
          </mxGeometry>
        </mxCell>
        <mxCell id="G-Tz_6IMmRrEzIlT-Tn9-27" value="" style="endArrow=classic;html=1;rounded=0;exitX=1;exitY=0.5;exitDx=0;exitDy=0;entryX=0.017;entryY=0.453;entryDx=0;entryDy=0;entryPerimeter=0;" edge="1" parent="G-Tz_6IMmRrEzIlT-Tn9-2" source="G-Tz_6IMmRrEzIlT-Tn9-24" target="G-Tz_6IMmRrEzIlT-Tn9-26">
          <mxGeometry width="50" height="50" relative="1" as="geometry">
            <mxPoint x="268.75" y="390" as="sourcePoint" />
            <mxPoint x="166.6911764705883" y="430" as="targetPoint" />
          </mxGeometry>
        </mxCell>
        <mxCell id="G-Tz_6IMmRrEzIlT-Tn9-44" value="yes" style="text;html=1;strokeColor=none;fillColor=none;align=center;verticalAlign=middle;whiteSpace=wrap;rounded=0;" vertex="1" parent="G-Tz_6IMmRrEzIlT-Tn9-2">
          <mxGeometry x="400" y="440" width="60" height="20" as="geometry" />
        </mxCell>
        <mxCell id="G-Tz_6IMmRrEzIlT-Tn9-45" value="" style="endArrow=none;html=1;rounded=0;exitX=0.85;exitY=0.663;exitDx=0;exitDy=0;exitPerimeter=0;" edge="1" parent="G-Tz_6IMmRrEzIlT-Tn9-2" source="G-Tz_6IMmRrEzIlT-Tn9-29" target="G-Tz_6IMmRrEzIlT-Tn9-44">
          <mxGeometry width="50" height="50" relative="1" as="geometry">
            <mxPoint x="556.75" y="433.03999999999996" as="sourcePoint" />
            <mxPoint x="441.25" y="590" as="targetPoint" />
            <Array as="points" />
          </mxGeometry>
        </mxCell>
        <mxCell id="G-Tz_6IMmRrEzIlT-Tn9-46" value="no" style="text;html=1;strokeColor=none;fillColor=none;align=center;verticalAlign=middle;whiteSpace=wrap;rounded=0;" vertex="1" parent="G-Tz_6IMmRrEzIlT-Tn9-2">
          <mxGeometry x="326.25" y="420" width="33.75" height="20" as="geometry" />
        </mxCell>
        <mxCell id="G-Tz_6IMmRrEzIlT-Tn9-47" value="" style="endArrow=none;html=1;rounded=0;exitX=0;exitY=1;exitDx=0;exitDy=0;entryX=0.574;entryY=0.056;entryDx=0;entryDy=0;entryPerimeter=0;" edge="1" parent="G-Tz_6IMmRrEzIlT-Tn9-2" source="G-Tz_6IMmRrEzIlT-Tn9-29" target="G-Tz_6IMmRrEzIlT-Tn9-46">
          <mxGeometry width="50" height="50" relative="1" as="geometry">
            <mxPoint x="508.75" y="440" as="sourcePoint" />
            <mxPoint x="439.79999999999995" y="524" as="targetPoint" />
          </mxGeometry>
        </mxCell>
        <mxCell id="G-Tz_6IMmRrEzIlT-Tn9-39" value="" style="endArrow=classic;html=1;rounded=0;exitX=0.5;exitY=1;exitDx=0;exitDy=0;startArrow=none;" edge="1" parent="1" source="G-Tz_6IMmRrEzIlT-Tn9-40">
          <mxGeometry width="50" height="50" relative="1" as="geometry">
            <mxPoint x="400" y="480" as="sourcePoint" />
            <mxPoint x="210" y="640" as="targetPoint" />
          </mxGeometry>
        </mxCell>
        <mxCell id="G-Tz_6IMmRrEzIlT-Tn9-40" value="" style="ellipse;html=1;shape=endState;fillColor=#000000;strokeColor=#ff0000;" vertex="1" parent="1">
          <mxGeometry x="195" y="630" width="30" height="30" as="geometry" />
        </mxCell>
        <mxCell id="G-Tz_6IMmRrEzIlT-Tn9-42" value="" style="endArrow=classic;html=1;rounded=0;exitX=0.5;exitY=1;exitDx=0;exitDy=0;entryX=0.5;entryY=0;entryDx=0;entryDy=0;" edge="1" parent="1" source="G-Tz_6IMmRrEzIlT-Tn9-37" target="G-Tz_6IMmRrEzIlT-Tn9-40">
          <mxGeometry width="50" height="50" relative="1" as="geometry">
            <mxPoint x="200" y="610" as="sourcePoint" />
            <mxPoint x="250" y="560" as="targetPoint" />
          </mxGeometry>
        </mxCell>
      </root>
    </mxGraphModel>
  </diagram>
</mxfile>
